<svg aria-hidden="true" style="position: absolute; width: 0; height: 0; overflow: hidden;" version="1.1" xmlns="http://www.w3.org/2000/svg" xmlns:xlink="http://www.w3.org/1999/xlink">
<defs>
<symbol id="icon-location_pin" viewBox="0 0 24 24">
<path d="M12 2.016v0q-1.453 0-2.719 0.539t-2.227 1.5-1.5 2.227-0.539 2.719q0 1.313 0.352 2.531t1.055 2.297q0.703 1.172 1.57 2.203t1.57 2.203q0.375 0.563 0.633 1.102t0.539 1.148q0.141 0.281 0.281 0.633t0.375 0.609 0.609 0.258v0q0.375 0 0.609-0.258t0.375-0.609 0.281-0.633q0.281-0.609 0.539-1.148t0.633-1.102q0.703-1.125 1.57-2.18t1.57-2.227q0.703-1.078 1.055-2.297t0.352-2.531q0-1.453-0.539-2.719t-1.5-2.227-2.227-1.5-2.719-0.539zM12 11.766q-1.031 0-1.758-0.75t-0.727-1.781 0.727-1.758 1.758-0.727 1.758 0.727 0.727 1.758-0.727 1.781-1.758 0.75z"></path>
</symbol>
<symbol id="icon-location" viewBox="0 0 32 32">
<path d="M16 0c-5.523 0-10 4.477-10 10 0 10 10 22 10 22s10-12 10-22c0-5.523-4.477-10-10-10zM16 16c-3.314 0-6-2.686-6-6s2.686-6 6-6 6 2.686 6 6-2.686 6-6 6z"></path>
</symbol>
</defs>
</svg>
